<svg xmlns="http://www.w3.org/2000/svg" viewBox="0 0 1600 900" role="img" aria-labelledby="t d"><title id="t">The Brasileirão title race resumes this weekend</title><desc id="d">Original BraGinga editorial illustration using fixture-board and football-pitch motifs. No third-party imagery or club marks.</desc><rect width="1600" height="900" fill="#081018"/><rect x="970" width="630" height="900" fill="#15352d"/><g opacity=".3" fill="#1f735b"><path d="M960 0h170l400 900h-170z"/><path d="M1320 0h160l120 270v400z"/></g><text x="70" y="120" fill="#edcf54" font-family="Arial,sans-serif" font-size="76" font-weight="900">BraGinga</text><rect x="70" y="145" width="230" height="10" fill="#edcf54"/><text x="70" y="220" fill="#dce3eb" font-family="Arial,sans-serif" font-size="30" font-weight="700">BRASILEIRÃO · ROUND 26</text><text x="70" y="335" fill="#fff" font-family="Arial,sans-serif" font-size="72" font-weight="900"><tspan x="70">The title race</tspan><tspan x="70" dy="86">resumes this</tspan><tspan x="70" dy="86">weekend</tspan></text><text x="70" y="645" fill="#c7d2df" font-family="Arial,sans-serif" font-size="34"><tspan x="70">Palmeiras lead Flamengo by one point entering the</tspan><tspan x="70" dy="48">weekend round, with every final still to be confirmed.</tspan></text><rect x="1090" y="92" width="410" height="64" rx="20" fill="#edcf54"/><text x="1118" y="133" fill="#081018" font-family="Arial,sans-serif" font-size="24" font-weight="800">ORIGINAL EDITORIAL ART</text><rect x="1120" y="235" width="380" height="470" rx="28" fill="#eef1f4"/><rect x="1120" y="235" width="380" height="90" rx="28" fill="#0b6e4f"/><rect x="1120" y="300" width="380" height="25" fill="#0b6e4f"/><g fill="#20323b"><circle cx="1190" cy="385" r="13"/><circle cx="1190" cy="465" r="13"/><circle cx="1190" cy="545" r="13"/><circle cx="1190" cy="625" r="13"/></g><g stroke="#647784" stroke-width="5"><line x1="1230" y1="385" x2="1430" y2="385"/><line x1="1230" y1="465" x2="1430" y2="465"/><line x1="1230" y1="545" x2="1430" y2="545"/><line x1="1230" y1="625" x2="1430" y2="625"/></g><text x="1165" y="295" fill="#fff" font-family="Arial,sans-serif" font-size="35" font-weight="800">ROUND 26</text></svg>